<?xml version="1.0" encoding="utf-8"?>
<!-- Generator: Adobe Illustrator 16.0.0, SVG Export Plug-In . SVG Version: 6.00 Build 0)  -->
<!DOCTYPE svg PUBLIC "-//W3C//DTD SVG 1.1//EN" "http://www.w3.org/Graphics/SVG/1.1/DTD/svg11.dtd">
<svg version="1.1" id="Layer_1" xmlns="http://www.w3.org/2000/svg" xmlns:xlink="http://www.w3.org/1999/xlink" x="0px" y="0px"
	 width="23.102px" height="30.8px" viewBox="0 0 23.102 30.8" enable-background="new 0 0 23.102 30.8" xml:space="preserve">
<g>
	<path fill="#33A664" d="M11.551,31.048c-0.365,0-0.713-0.149-0.957-0.412C10.151,30.161-0.25,18.885-0.25,11.154
		c0-6.288,5.293-11.403,11.8-11.403c6.508,0,11.802,5.116,11.802,11.403c0,7.706-10.4,19.005-10.843,19.482
		C12.264,30.899,11.915,31.048,11.551,31.048z"/>
	<path fill="#002305" d="M11.55,0c6.37,0,11.552,5.005,11.552,11.153c0,7.635-10.338,18.84-10.776,19.313
		c-0.206,0.222-0.491,0.332-0.775,0.332c-0.284,0-0.568-0.11-0.774-0.332C10.337,29.994,0,18.789,0,11.154C0,5.004,5.182,0,11.55,0
		 M11.55-0.5C4.906-0.5-0.5,4.728-0.5,11.154c0,7.828,10.465,19.174,10.91,19.653c0.291,0.313,0.707,0.491,1.14,0.491
		c0.434,0,0.85-0.179,1.141-0.491c0.445-0.481,10.91-11.851,10.91-19.653C23.602,4.728,18.196-0.5,11.55-0.5L11.55-0.5z"/>
</g>
<path fill="#006B2D" d="M23.102,11.154C23.102,5.004,17.92,0,11.55,0v30.8c0.284,0,0.567-0.111,0.774-0.334
	C12.764,29.994,23.102,18.789,23.102,11.154z"/>
<path fill="#B7F7CC" d="M11.55,16.767c-3.204,0-5.812-2.518-5.812-5.613c0-3.094,2.607-5.611,5.812-5.611s5.813,2.518,5.813,5.611
	C17.363,14.249,14.754,16.767,11.55,16.767z"/>
</svg>
