<?xml version="1.0" encoding="utf-8"?>
<!-- Generator: Adobe Illustrator 16.0.0, SVG Export Plug-In . SVG Version: 6.00 Build 0)  -->
<!DOCTYPE svg PUBLIC "-//W3C//DTD SVG 1.1//EN" "http://www.w3.org/Graphics/SVG/1.1/DTD/svg11.dtd">
<svg version="1.1" id="Layer_1" xmlns="http://www.w3.org/2000/svg" xmlns:xlink="http://www.w3.org/1999/xlink" x="0px" y="0px"
	 width="23.102px" height="30.8px" viewBox="0 0 23.102 30.8" enable-background="new 0 0 23.102 30.8" xml:space="preserve">
<g>
	<path fill="#FFD54C" d="M11.551,31.048c-0.365,0-0.713-0.15-0.957-0.413C10.151,30.16-0.249,18.884-0.249,11.153
		c0-6.288,5.293-11.403,11.8-11.403c6.507,0,11.801,5.116,11.801,11.403c0,7.551-9.732,18.283-10.842,19.482
		C12.265,30.898,11.916,31.048,11.551,31.048z"/>
	<path fill="#2D2A00" d="M11.551,0c6.37,0,11.551,5.005,11.551,11.153c0,7.635-10.338,18.84-10.775,19.313
		c-0.207,0.222-0.491,0.333-0.775,0.333s-0.568-0.111-0.774-0.333C10.338,29.993,0.001,18.788,0.001,11.153
		C0.001,5.003,5.182,0,11.551,0 M11.551-0.5c-6.644,0-12.05,5.228-12.05,11.653c0,7.828,10.465,19.174,10.91,19.653
		c0.291,0.313,0.707,0.492,1.14,0.492s0.85-0.18,1.141-0.492c1.118-1.207,10.91-12.007,10.91-19.653
		C23.602,4.727,18.196-0.5,11.551-0.5L11.551-0.5z"/>
</g>
<path fill="#B99C31" d="M23.102,11.153C23.102,5.003,17.92,0,11.551,0v30.8c0.284,0,0.567-0.111,0.774-0.334
	C12.764,29.993,23.102,18.788,23.102,11.153z"/>
<path fill="#FDF5A2" d="M11.551,16.766c-3.204,0-5.812-2.518-5.812-5.613c0-3.094,2.607-5.611,5.812-5.611
	c3.204,0,5.813,2.518,5.813,5.611C17.364,14.248,14.754,16.766,11.551,16.766z"/>
</svg>
