<?xml version="1.0" encoding="utf-8"?>
<!-- Generator: Adobe Illustrator 16.0.0, SVG Export Plug-In . SVG Version: 6.00 Build 0)  -->
<!DOCTYPE svg PUBLIC "-//W3C//DTD SVG 1.1//EN" "http://www.w3.org/Graphics/SVG/1.1/DTD/svg11.dtd">
<svg version="1.1" id="Layer_1" xmlns="http://www.w3.org/2000/svg" xmlns:xlink="http://www.w3.org/1999/xlink" x="0px" y="0px"
	 width="23.102px" height="30.8px" viewBox="0 0 23.102 30.8" enable-background="new 0 0 23.102 30.8" xml:space="preserve">
<g>
	<path fill="#BABABA" d="M11.551,30.899c-0.323,0-0.632-0.133-0.847-0.364C10.262,30.06-0.1,18.827-0.1,11.154
		C-0.1,4.949,5.126-0.1,11.55-0.1c6.425,0,11.651,5.048,11.651,11.253c0,7.647-10.361,18.905-10.803,19.381
		C12.183,30.766,11.874,30.899,11.551,30.899z"/>
	<path fill="#3F3F3F" d="M11.55,0c6.37,0,11.552,5.005,11.552,11.153c0,7.635-10.338,18.84-10.776,19.313
		c-0.206,0.222-0.491,0.332-0.775,0.332c-0.284,0-0.568-0.11-0.774-0.332C10.337,29.994,0,18.789,0,11.154C0,5.004,5.182,0,11.55,0
		 M11.55-0.2C5.071-0.2-0.2,4.894-0.2,11.154c0,7.712,10.388,18.973,10.83,19.448c0.234,0.252,0.57,0.396,0.92,0.396
		c0.351,0,0.687-0.145,0.921-0.396c0.442-0.478,10.83-11.763,10.83-19.449C23.302,4.894,18.03-0.2,11.55-0.2L11.55-0.2z"/>
</g>
<path fill="#757575" d="M23.102,11.154C23.102,5.004,17.92,0,11.55,0v30.8c0.284,0,0.567-0.111,0.774-0.334
	C12.764,29.994,23.102,18.789,23.102,11.154z"/>
<path fill="#EFEFEF" d="M11.55,16.767c-3.204,0-5.812-2.518-5.812-5.613c0-3.094,2.607-5.611,5.812-5.611s5.813,2.518,5.813,5.611
	C17.363,14.249,14.754,16.767,11.55,16.767z"/>
<path fill="#C5D8DF" d="M11.55,5.542v11.225c3.204,0,5.813-2.518,5.813-5.613C17.363,8.06,14.754,5.542,11.55,5.542z"/>
</svg>
