<?xml version="1.0" encoding="iso-8859-1"?>
<!-- Generator: Adobe Illustrator 19.0.0, SVG Export Plug-In . SVG Version: 6.00 Build 0)  -->
<svg xmlns="http://www.w3.org/2000/svg" xmlns:xlink="http://www.w3.org/1999/xlink" version="1.1" id="Capa_1" x="0px" y="0px" viewBox="0 0 512 512" style="enable-background:new 0 0 512 512;" xml:space="preserve" width="512px" height="512px">
<g>
	<g>
		<path d="M298.575,58.283c-0.708-4.096-4.258-7.083-8.405-7.083h-59.733c-4.087,0-7.603,2.901-8.38,6.921l-85.333,443.733    l16.759,3.217l84.002-436.804h45.5l75.571,436.668l16.819-2.918L298.575,58.283z" fill="#FFFFFF"/>
	</g>
</g>
<g>
	<g>
		<rect x="196.269" y="247.467" width="128" height="17.067" fill="#FFFFFF"/>
	</g>
</g>
<g>
	<g>
		<rect x="213.335" y="136.533" width="93.867" height="17.067" fill="#FFFFFF"/>
	</g>
</g>
<g>
	<g>
		
			<rect x="197.464" y="98.137" transform="matrix(0.7071 -0.7071 0.7071 0.7071 -1.6859 209.2713)" width="108.611" height="17.066" fill="#FFFFFF"/>
	</g>
</g>
<g>
	<g>
		
			<rect x="173.333" y="192.005" transform="matrix(0.7071 -0.7071 0.7071 0.7071 -68.06 236.765)" width="156.875" height="17.067" fill="#FFFFFF"/>
	</g>
</g>
<g>
	<g>
		
			<rect x="152.776" y="302.961" transform="matrix(0.8107 -0.5855 0.5855 0.8107 -135.5202 203.8788)" width="189.444" height="17.067" fill="#FFFFFF"/>
	</g>
</g>
<g>
	<g>
		
			<rect x="140.588" y="409.577" transform="matrix(0.8778 -0.479 0.479 0.8778 -170.0347 169.6467)" width="213.843" height="17.066" fill="#FFFFFF"/>
	</g>
</g>
<g>
	<g>
		<rect x="247.469" width="17.067" height="51.2" fill="#FFFFFF"/>
	</g>
</g>
<g>
	<g>
		<path d="M131.987,32.785l1.101-1.34l-7.305-4.872l-5.862-5.862C89.303,51.337,72.442,92.058,72.45,135.364    c0.009,43.307,16.879,84.019,47.505,114.637l12.066-12.066c-27.401-27.392-42.505-63.821-42.505-102.571    C89.508,96.614,104.595,60.186,131.987,32.785z" fill="#FFFFFF"/>
	</g>
</g>
<g>
	<g>
		<path d="M168.203,68.659l-12.331-11.802c-43.17,43.332-43.051,113.707,0.273,156.885l12.049-12.1    C131.535,165.112,131.424,105.566,168.203,68.659z" fill="#FFFFFF"/>
	</g>
</g>
<g>
	<g>
		<rect x="119.469" y="494.933" width="51.2" height="17.067" fill="#FFFFFF"/>
	</g>
</g>
<g>
	<g>
		<rect x="341.336" y="494.933" width="51.2" height="17.067" fill="#FFFFFF"/>
	</g>
</g>
<g>
	<g>
		<rect x="170.669" y="358.4" width="170.667" height="17.067" fill="#FFFFFF"/>
	</g>
</g>
<g>
	<g>
		<path d="M392.16,19.601c-0.282-0.282-0.58-0.546-0.896-0.785l-0.06-0.043l-5.24,6.989l-5.896,5.897    c0.043,0.034,0.077,0.068,0.111,0.102c56.465,56.576,56.414,148.54-0.128,205.065l12.066,12.066    C455.341,185.694,455.366,82.833,392.16,19.601z" fill="#FFFFFF"/>
	</g>
</g>
<g>
	<g>
		<path d="M355.646,55.211l-11.529,12.587c36.54,36.668,36.429,96.213-0.239,132.745l12.049,12.092    C399.251,169.463,399.388,99.089,355.646,55.211z" fill="#FFFFFF"/>
	</g>
</g>
<g>
</g>
<g>
</g>
<g>
</g>
<g>
</g>
<g>
</g>
<g>
</g>
<g>
</g>
<g>
</g>
<g>
</g>
<g>
</g>
<g>
</g>
<g>
</g>
<g>
</g>
<g>
</g>
<g>
</g>
</svg>
