<?xml version="1.0" encoding="iso-8859-1"?>
<!-- Generator: Adobe Illustrator 19.0.0, SVG Export Plug-In . SVG Version: 6.00 Build 0)  -->
<svg xmlns="http://www.w3.org/2000/svg" xmlns:xlink="http://www.w3.org/1999/xlink" version="1.1" id="Layer_1" x="0px" y="0px" viewBox="0 0 512 512" style="enable-background:new 0 0 512 512;" xml:space="preserve" width="512px" height="512px">
<g>
	<g>
		<path d="M426.667,136.533H290.133V93.867H332.8v8.533c0,5.12,3.413,8.533,8.533,8.533s8.533-3.413,8.533-8.533v-8.533h25.6    c5.12,0,8.533-3.413,8.533-8.533V51.2c0-5.12-3.413-8.533-8.533-8.533h-85.333V29.013C290.133,12.8,277.333,0,261.12,0h-10.24    c-16.213,0-29.013,12.8-29.013,29.013v13.653h-85.333c-4.267,0-8.533,4.267-8.533,8.533v34.133c0,5.12,3.413,8.533,8.533,8.533    h25.6v8.533c0,5.12,3.413,8.533,8.533,8.533c5.12,0,8.533-3.413,8.533-8.533v-8.533h42.667v42.667H85.333    c-5.12,0-8.533,3.413-8.533,8.533V179.2c0,5.12,3.413,8.533,8.533,8.533H102.4v8.533c0,5.12,3.413,8.533,8.533,8.533    c5.12,0,8.533-3.413,8.533-8.533v-8.533h42.667v8.533c0,5.12,3.413,8.533,8.533,8.533c5.12,0,8.533-3.413,8.533-8.533v-8.533    h42.667V435.2h25.6c5.12,0,8.533,3.413,8.533,8.533s-3.413,8.533-8.533,8.533h-25.6v8.533h25.6c5.12,0,8.533,3.413,8.533,8.533    s-3.413,8.533-8.533,8.533h-25.6v17.067H204.8c-5.12,0-8.533,3.413-8.533,8.533S199.68,512,204.8,512h25.6h51.2h25.6    c5.12,0,8.533-3.413,8.533-8.533s-3.413-8.533-8.533-8.533h-17.067v-307.2H332.8v8.533c0,5.12,3.413,8.533,8.533,8.533    s8.533-3.413,8.533-8.533v-8.533h42.667v8.533c0,5.12,3.413,8.533,8.533,8.533s8.533-3.413,8.533-8.533v-8.533h17.067    c5.12,0,8.533-3.413,8.533-8.533v-34.133C435.2,140.8,431.787,136.533,426.667,136.533z M145.067,76.8V59.733H230.4h51.2h85.333    V76.8H281.6h-51.2H145.067z M418.133,170.667H281.6h-51.2H93.867V153.6H230.4h51.2h136.533V170.667z" fill="#7db5fa"/>
	</g>
</g>
<g>
</g>
<g>
</g>
<g>
</g>
<g>
</g>
<g>
</g>
<g>
</g>
<g>
</g>
<g>
</g>
<g>
</g>
<g>
</g>
<g>
</g>
<g>
</g>
<g>
</g>
<g>
</g>
<g>
</g>
</svg>
