<?xml version="1.0" encoding="iso-8859-1"?>
<!-- Generator: Adobe Illustrator 19.0.0, SVG Export Plug-In . SVG Version: 6.00 Build 0)  -->
<svg xmlns="http://www.w3.org/2000/svg" xmlns:xlink="http://www.w3.org/1999/xlink" version="1.1" id="Capa_1" x="0px" y="0px" viewBox="0 0 480 480" style="enable-background:new 0 0 480 480;" xml:space="preserve" width="512px" height="512px">
<g>
	<g>
		<g>
			<path d="M240,144c13.255,0,24-10.745,24-24s-10.745-24-24-24s-24,10.745-24,24S226.745,144,240,144z M240,112     c4.418,0,8,3.582,8,8s-3.582,8-8,8s-8-3.582-8-8S235.582,112,240,112z" fill="#FFFFFF"/>
			<path d="M336,416h-9.064l-29.712-208H304c13.255,0,24-10.745,24-24s-10.745-24-24-24h-8V80h8c4.418,0,8-3.582,8-8V40     c0-4.418-3.582-8-8-8h-8.8C291.373,13.389,275.001,0.024,256,0h-32c-19.001,0.024-35.373,13.389-39.2,32H176     c-4.418,0-8,3.582-8,8v32c0,4.418,3.582,8,8,8h8v80h-8c-13.255,0-24,10.745-24,24s10.745,24,24,24h6.776l-29.712,208H144     c-13.255,0-24,10.745-24,24v32c0,4.418,3.582,8,8,8h224c4.418,0,8-3.582,8-8v-32C360,426.745,349.255,416,336,416z M310.776,416     h-47.464l42.72-33.224L310.776,416z M298.096,327.2l5.304,37.336L237.256,416h-46.96L298.096,327.2z M280,48h16v16h-16V48z      M280,80v80h-80V80H280z M216,64V48h16v16H216z M248,64V48h16v16H248z M224,16h32c10.168,0.012,19.229,6.418,22.632,16h-77.264     C204.771,22.418,213.832,16.012,224,16z M184,48h16v16h-16V48z M176,192c-4.418,0-8-3.582-8-8s3.582-8,8-8h128     c4.418,0,8,3.582,8,8s-3.582,8-8,8H176z M274.872,208L189.6,273.6l9.336-65.6H274.872z M186.4,295.608     c0.887-0.274,1.718-0.701,2.456-1.264l94.168-72.44l4.392,30.744l-107.336,87.2L186.4,295.608z M176.8,363.2l113.28-92.08     l5.368,37.6l-125.68,103.464L176.8,363.2z M344,464H136v-24c0-4.418,3.582-8,8-8h192c4.418,0,8,3.582,8,8V464z" fill="#FFFFFF"/>
			<path d="M52.752,63.312l72,32c1.022,0.456,2.129,0.69,3.248,0.688c4.418,0.001,8.001-3.579,8.002-7.998     c0.001-3.164-1.863-6.031-4.754-7.314l-72-32c-4.038-1.794-8.766,0.026-10.56,4.064C46.894,56.79,48.714,61.518,52.752,63.312z" fill="#FFFFFF"/>
			<path d="M135.313,148.754c0-0.001,0-0.001-0.001-0.002c-1.793-4.038-6.52-5.858-10.558-4.065c-0.001,0-0.001,0-0.002,0.001     l-72,32c-4.038,1.794-5.858,6.522-4.064,10.56c1.794,4.038,6.522,5.858,10.56,4.064l72-32     C135.286,157.519,137.106,152.792,135.313,148.754z" fill="#FFFFFF"/>
			<path d="M128,128c4.418,0,8-3.582,8-8s-3.582-8-8-8H48c-4.418,0-8,3.582-8,8s3.582,8,8,8H128z" fill="#FFFFFF"/>
			<path d="M352,96c1.119,0.002,2.226-0.232,3.248-0.688l72-32c4.038-1.794,5.858-6.522,4.064-10.56     c-1.794-4.038-6.522-5.858-10.56-4.064l-72,32c-4.038,1.793-5.859,6.519-4.066,10.558C345.969,94.137,348.836,96.001,352,96z" fill="#FFFFFF"/>
			<path d="M427.248,176.688l-72-32c-4.038-1.794-8.766,0.026-10.56,4.064c-1.794,4.038,0.026,8.766,4.064,10.56l72,32     c1.022,0.456,2.129,0.69,3.248,0.688c4.418,0.001,8.001-3.579,8.002-7.998C432.003,180.839,430.14,177.972,427.248,176.688z" fill="#FFFFFF"/>
			<path d="M432,112h-80c-4.418,0-8,3.582-8,8s3.582,8,8,8h80c4.418,0,8-3.582,8-8S436.418,112,432,112z" fill="#FFFFFF"/>
		</g>
	</g>
</g>
<g>
</g>
<g>
</g>
<g>
</g>
<g>
</g>
<g>
</g>
<g>
</g>
<g>
</g>
<g>
</g>
<g>
</g>
<g>
</g>
<g>
</g>
<g>
</g>
<g>
</g>
<g>
</g>
<g>
</g>
</svg>
