<?xml version="1.0" encoding="utf-8"?>
<!-- Generator: Adobe Illustrator 16.0.0, SVG Export Plug-In . SVG Version: 6.00 Build 0)  -->
<!DOCTYPE svg PUBLIC "-//W3C//DTD SVG 1.1//EN" "http://www.w3.org/Graphics/SVG/1.1/DTD/svg11.dtd">
<svg version="1.1" id="Layer_1" xmlns="http://www.w3.org/2000/svg" xmlns:xlink="http://www.w3.org/1999/xlink" x="0px" y="0px"
	 width="23.102px" height="30.8px" viewBox="294.449 380.6 23.102 30.8" enable-background="new 294.449 380.6 23.102 30.8"
	 xml:space="preserve">
<path fill="#F37657" d="M305.226,411.066c-0.44-0.473-10.777-11.678-10.777-19.312c0-6.15,5.182-11.154,11.55-11.154
	c6.37,0,11.552,5.005,11.552,11.154c0,7.634-10.338,18.839-10.777,19.312C306.361,411.51,305.638,411.51,305.226,411.066z"/>
<path fill="#F0532D" d="M317.551,391.754c0-6.15-5.182-11.154-11.552-11.154v30.8c0.284,0,0.567-0.111,0.774-0.334
	C307.213,410.594,317.551,399.389,317.551,391.754z"/>
<path fill="#EFEFEF" d="M305.999,397.367c-3.204,0-5.811-2.518-5.811-5.613s2.607-5.612,5.811-5.612s5.813,2.518,5.813,5.612
	S309.203,397.367,305.999,397.367z"/>
<path fill="#C5D8DF" d="M305.999,386.142v11.225c3.204,0,5.813-2.518,5.813-5.613S309.203,386.142,305.999,386.142z"/>
</svg>
