<?xml version="1.0" encoding="iso-8859-1"?>
<!-- Generator: Adobe Illustrator 19.0.0, SVG Export Plug-In . SVG Version: 6.00 Build 0)  -->
<svg version="1.1" id="Capa_1" xmlns="http://www.w3.org/2000/svg" xmlns:xlink="http://www.w3.org/1999/xlink" x="0px" y="0px"
	 viewBox="0 0 477.816 477.816" style="enable-background:new 0 0 477.816 477.816;" xml:space="preserve">
<linearGradient id="SVGID_1_" gradientUnits="userSpaceOnUse" x1="-27.974" y1="554.001" x2="-27.974" y2="622.002" gradientTransform="matrix(8 0 0 -8 462.6998 4921.3442)">
	<stop  offset="0" style="stop-color:#006DF0"/>
	<stop  offset="1" style="stop-color:#00E7F0"/>
</linearGradient>
<path style="fill:url(#SVGID_1_);" d="M358.372,472.216c0.198-0.478,0.35-0.974,0.456-1.48c0.005-0.412-0.022-0.824-0.08-1.232
	c0.015-0.632-0.047-1.263-0.184-1.88c0-0.048,0-0.104,0-0.152l-109.56-360c12.025-5.576,17.253-19.844,11.677-31.869
	s-19.844-17.253-31.869-11.677c-12.025,5.576-17.253,19.844-11.677,31.869c2.389,5.151,6.526,9.289,11.677,11.677l-109.56,360v0.152
	c-0.137,0.617-0.199,1.248-0.184,1.88c-0.058,0.408-0.085,0.82-0.08,1.232c0.106,0.506,0.258,1.002,0.456,1.48
	c0.111,0.489,0.269,0.966,0.472,1.424c0.244,0.351,0.511,0.685,0.8,1c0.343,0.508,0.746,0.973,1.2,1.384
	c0.04,0,0.064,0.088,0.104,0.12c0.742,0.561,1.575,0.989,2.464,1.264l0.088,0.048c0.16,0.048,0.32,0,0.48,0.048
	c0.602,0.175,1.222,0.28,1.848,0.312c0.128,0,0.248-0.08,0.384-0.088c1.085-0.188,2.154-0.455,3.2-0.8
	c1.007-0.515,1.893-1.238,2.6-2.12c0-0.048,0.088-0.056,0.12-0.104L238.9,337.336l105.664,137.352c0.064,0.088,0.168,0.12,0.24,0.2
	c0.629,0.745,1.392,1.366,2.248,1.832c0.246,0.145,0.5,0.276,0.76,0.392c0.971,0.442,2.022,0.682,3.088,0.704h0.088
	c0.758-0.003,1.513-0.113,2.24-0.328l0.088-0.048c0.889-0.273,1.723-0.701,2.464-1.264c0.04,0,0.064-0.088,0.104-0.12
	c0.454-0.411,0.857-0.876,1.2-1.384c0.289-0.315,0.556-0.649,0.8-1C358.094,473.204,358.258,472.716,358.372,472.216
	L358.372,472.216z M201.004,253.816l37.896-124.52l37.896,124.52H201.004z M270.652,269.816l-31.752,41.28l-31.76-41.28H270.652z
	 M238.9,77.816c4.418,0,8,3.582,8,8s-3.582,8-8,8c-4.418,0-8-3.582-8-8S234.482,77.816,238.9,77.816z M147.34,430.128
	l46.192-151.776l35.28,45.864L147.34,430.128z M284.268,278.352l46.192,151.776l-81.472-105.912L284.268,278.352z"/>
<g>
	
		<linearGradient id="SVGID_2_" gradientUnits="userSpaceOnUse" x1="-15.9981" y1="554.001" x2="-15.9981" y2="622.002" gradientTransform="matrix(8 0 0 -8 462.6998 4921.3442)">
		<stop  offset="0" style="stop-color:#006DF0"/>
		<stop  offset="1" style="stop-color:#00E7F0"/>
	</linearGradient>
	<path style="fill:url(#SVGID_2_);" d="M311.476,158.408l11.336,11.296c46.857-46.862,46.857-122.834,0-169.696l-11.336,11.304
		c40.619,40.61,40.627,106.459,0.018,147.078C311.488,158.396,311.482,158.402,311.476,158.408z"/>
	
		<linearGradient id="SVGID_3_" gradientUnits="userSpaceOnUse" x1="-22.827" y1="554.001" x2="-22.827" y2="622.002" gradientTransform="matrix(8 0 0 -8 462.6998 4921.3442)">
		<stop  offset="0" style="stop-color:#006DF0"/>
		<stop  offset="1" style="stop-color:#00E7F0"/>
	</linearGradient>
	<path style="fill:url(#SVGID_3_);" d="M277.492,124.456c21.87-21.787,21.938-57.178,0.151-79.049
		c-0.05-0.051-0.101-0.101-0.151-0.151l-11.264,11.36c15.597,15.57,15.618,40.836,0.047,56.433
		c-0.016,0.016-0.031,0.032-0.047,0.047L277.492,124.456z"/>
	
		<linearGradient id="SVGID_4_" gradientUnits="userSpaceOnUse" x1="-19.4141" y1="554.001" x2="-19.4141" y2="622.002" gradientTransform="matrix(8 0 0 -8 462.6998 4921.3442)">
		<stop  offset="0" style="stop-color:#006DF0"/>
		<stop  offset="1" style="stop-color:#00E7F0"/>
	</linearGradient>
	<path style="fill:url(#SVGID_4_);" d="M288.844,135.76l11.32,11.312c34.354-34.364,34.354-90.068,0-124.432l-11.32,11.312
		C316.952,62.068,316.952,107.644,288.844,135.76z"/>
	
		<linearGradient id="SVGID_5_" gradientUnits="userSpaceOnUse" x1="-39.9516" y1="554.001" x2="-39.9516" y2="622.002" gradientTransform="matrix(8 0 0 -8 462.6998 4921.3442)">
		<stop  offset="0" style="stop-color:#006DF0"/>
		<stop  offset="1" style="stop-color:#00E7F0"/>
	</linearGradient>
	<path style="fill:url(#SVGID_5_);" d="M166.324,158.408c-40.622-40.607-40.633-106.457-0.026-147.078
		c0.009-0.009,0.017-0.017,0.026-0.026L154.996,0c-46.862,46.863-46.862,122.841,0,169.704L166.324,158.408z"/>
	
		<linearGradient id="SVGID_6_" gradientUnits="userSpaceOnUse" x1="-33.1229" y1="554.001" x2="-33.1229" y2="622.002" gradientTransform="matrix(8 0 0 -8 462.6998 4921.3442)">
		<stop  offset="0" style="stop-color:#006DF0"/>
		<stop  offset="1" style="stop-color:#00E7F0"/>
	</linearGradient>
	<path style="fill:url(#SVGID_6_);" d="M200.308,124.456l11.264-11.36c-15.597-15.57-15.618-40.836-0.047-56.433
		c0.016-0.016,0.031-0.032,0.047-0.047l-11.264-11.36c-21.87,21.787-21.938,57.178-0.151,79.049
		C200.207,124.355,200.257,124.406,200.308,124.456L200.308,124.456z"/>
	
		<linearGradient id="SVGID_7_" gradientUnits="userSpaceOnUse" x1="-36.5358" y1="554.001" x2="-36.5358" y2="622.002" gradientTransform="matrix(8 0 0 -8 462.6998 4921.3442)">
		<stop  offset="0" style="stop-color:#006DF0"/>
		<stop  offset="1" style="stop-color:#00E7F0"/>
	</linearGradient>
	<path style="fill:url(#SVGID_7_);" d="M177.644,147.072l11.312-11.312c-28.107-28.116-28.107-73.692,0-101.808l-11.32-11.336
		c-34.354,34.364-34.354,90.068,0,124.432L177.644,147.072z"/>
</g>
<g>
</g>
<g>
</g>
<g>
</g>
<g>
</g>
<g>
</g>
<g>
</g>
<g>
</g>
<g>
</g>
<g>
</g>
<g>
</g>
<g>
</g>
<g>
</g>
<g>
</g>
<g>
</g>
<g>
</g>
</svg>
