<?xml version="1.0" encoding="iso-8859-1"?>
<!-- Generator: Adobe Illustrator 19.0.0, SVG Export Plug-In . SVG Version: 6.00 Build 0)  -->
<svg version="1.1" id="Capa_1" xmlns="http://www.w3.org/2000/svg" xmlns:xlink="http://www.w3.org/1999/xlink" x="0px" y="0px"
	 viewBox="0 0 512 512" style="enable-background:new 0 0 512 512;" xml:space="preserve">
<g>
	<path style="fill:#A8D3D6;" d="M162.866,372.056c-2.368,0-4.696-1.116-6.157-3.204c-2.378-3.398-1.552-8.078,1.845-10.457
		l155.234-108.663c3.396-2.377,8.079-1.552,10.457,1.846c2.378,3.398,1.552,8.078-1.845,10.457L167.166,370.699
		C165.856,371.616,164.354,372.056,162.866,372.056z"/>
	<path style="fill:#A8D3D6;" d="M131.819,480.722c-2.754,0-5.406-1.522-6.722-4.152c-1.855-3.709-0.351-8.219,3.358-10.074
		l217.329-108.665c3.709-1.854,8.219-0.351,10.073,3.358c1.855,3.709,0.351,8.219-3.358,10.074L135.171,479.927
		C134.093,480.466,132.948,480.722,131.819,480.722z"/>
	<path style="fill:#A8D3D6;" d="M349.134,372.056c-1.487,0-2.988-0.44-4.299-1.358L189.602,262.037
		c-3.398-2.379-4.224-7.06-1.845-10.457c2.378-3.397,7.061-4.222,10.457-1.846l155.234,108.662c3.398,2.379,4.224,7.06,1.845,10.457
		C353.831,370.939,351.502,372.056,349.134,372.056z"/>
	<path style="fill:#A8D3D6;" d="M380.183,480.722c-1.128,0-2.274-0.255-3.352-0.795L159.503,371.262
		c-3.709-1.855-5.213-6.364-3.358-10.074c1.855-3.708,6.366-5.213,10.073-3.358l217.329,108.665
		c3.709,1.855,5.213,6.364,3.358,10.074C385.589,479.2,382.937,480.722,380.183,480.722z"/>
	<path style="fill:#A8D3D6;" d="M318.086,139.206c-1.432,0-2.878-0.408-4.158-1.262L189.742,55.153
		c-3.451-2.301-4.383-6.962-2.082-10.412c2.301-3.45,6.962-4.382,10.412-2.082l124.186,82.791c3.451,2.301,4.383,6.962,2.082,10.412
		C322.893,138.031,320.513,139.206,318.086,139.206z"/>
	<path style="fill:#A8D3D6;" d="M318.086,263.392c-1.432,0-2.878-0.408-4.158-1.262l-124.186-82.791
		c-3.451-2.301-4.383-6.962-2.082-10.412c2.301-3.451,6.962-4.383,10.412-2.082l124.186,82.791
		c3.451,2.301,4.383,6.962,2.082,10.412C322.893,262.218,320.513,263.392,318.086,263.392z"/>
</g>
<path style="fill:#DCF3F4;" d="M380.185,480.722c-3.268,0-6.273-2.149-7.216-5.447l-62.095-217.327
	c-0.191-0.671-0.289-1.365-0.289-2.063V15.018H201.416v240.866c0,0.698-0.097,1.393-0.289,2.063l-62.094,217.327
	c-1.139,3.987-5.294,6.299-9.283,5.156c-3.988-1.139-6.296-5.295-5.157-9.281l61.806-216.316V7.51c0-4.148,3.362-7.508,7.508-7.508
	h124.185c4.147,0,7.508,3.361,7.508,7.508v247.323l61.807,216.316c1.139,3.987-1.169,8.143-5.157,9.281
	C381.563,480.628,380.868,480.722,380.185,480.722z"/>
<path style="fill:#A8D3D6;" d="M400.888,504.262H111.116v-25.042c0-3.318,2.689-6.007,6.007-6.007h277.759
	c3.318,0,6.007,2.689,6.007,6.007v25.042H400.888z"/>
<path style="fill:#84AFB4;" d="M400.888,504.262h-31.049v-31.049h25.042c3.318,0,6.007,2.689,6.007,6.007L400.888,504.262
	L400.888,504.262z"/>
<path style="fill:#E0B07B;" d="M423.74,512H88.262c-4.275,0-7.741-3.465-7.741-7.741s3.466-7.741,7.741-7.741H423.74
	c4.275,0,7.741,3.465,7.741,7.741C431.48,508.535,428.015,512,423.74,512z"/>
<g>
	<path style="fill:#DCF3F4;" d="M349.142,372.055H162.86c-4.147,0-7.508-3.361-7.508-7.508s3.362-7.508,7.508-7.508h186.282
		c4.147,0,7.508,3.361,7.508,7.508S353.289,372.055,349.142,372.055z"/>
	<path style="fill:#DCF3F4;" d="M318.094,263.393H193.907c-4.147,0-7.508-3.361-7.508-7.508c0-4.148,3.362-7.508,7.508-7.508
		h124.185c4.147,0,7.508,3.361,7.508,7.508C325.602,260.032,322.241,263.393,318.094,263.393z"/>
	<path style="fill:#DCF3F4;" d="M462.98,180.602H49.021c-3.744,0-6.917-2.759-7.436-6.467c-0.52-3.708,1.773-7.232,5.373-8.261
		l144.887-41.396c0.671-0.192,1.366-0.289,2.063-0.289h124.185c0.698,0,1.392,0.097,2.063,0.289l144.887,41.396
		c3.6,1.029,5.893,4.553,5.373,8.261C469.896,177.843,466.724,180.602,462.98,180.602z M102.632,165.585h306.737l-92.327-26.38
		H194.959L102.632,165.585z"/>
</g>
<g>
	<path style="fill:#A8D3D6;" d="M90.416,211.647c-4.147,0-7.508-3.361-7.508-7.508v-31.046c0-4.148,3.362-7.508,7.508-7.508
		s7.508,3.361,7.508,7.508v31.046C97.925,208.286,94.563,211.647,90.416,211.647z"/>
	<path style="fill:#A8D3D6;" d="M421.582,211.647c-4.147,0-7.508-3.361-7.508-7.508v-31.046c0-4.148,3.362-7.508,7.508-7.508
		s7.508,3.361,7.508,7.508v31.046C429.09,208.286,425.729,211.647,421.582,211.647z"/>
</g>
<g>
	<path style="fill:#FFD347;" d="M105.109,235.187H75.727c-3.318,0-6.007-2.689-6.007-6.007v-19.034c0-3.318,2.689-6.007,6.007-6.007
		h29.382c3.318,0,6.007,2.689,6.007,6.007v19.034C111.116,232.498,108.427,235.187,105.109,235.187z"/>
	<path style="fill:#FFD347;" d="M436.275,235.187h-29.382c-3.318,0-6.007-2.689-6.007-6.007v-19.034
		c0-3.318,2.689-6.007,6.007-6.007h29.382c3.318,0,6.007,2.689,6.007,6.007v19.034C442.281,232.498,439.592,235.187,436.275,235.187
		z"/>
</g>
<path style="fill:#DCF3F4;" d="M465.042,41.686L320.156,0.29c-3.987-1.135-8.143,1.17-9.283,5.157
	c-1.139,3.988,1.169,8.143,5.157,9.282l93.338,26.667H102.633l93.338-26.667c3.986-1.14,6.296-5.295,5.157-9.282
	c-1.139-3.987-5.297-6.293-9.283-5.157L46.958,41.686c-3.6,1.029-5.893,4.553-5.373,8.261c0.52,3.708,3.692,6.467,7.436,6.467
	H462.98c3.744,0,6.917-2.759,7.435-6.467C470.935,46.239,468.642,42.715,465.042,41.686z"/>
<path style="fill:#A8D3D6;" d="M90.416,88.042c-4.467,0-8.088-3.621-8.088-8.088V48.907c0-4.467,3.621-8.088,8.088-8.088
	c4.467,0,8.088,3.62,8.088,8.088v31.047C98.504,84.421,94.882,88.042,90.416,88.042z"/>
<path style="fill:#FFD347;" d="M105.109,111.001H75.727c-3.318,0-6.007-2.689-6.007-6.007V85.961c0-3.318,2.689-6.007,6.007-6.007
	h29.382c3.318,0,6.007,2.689,6.007,6.007v19.034C111.116,108.312,108.427,111.001,105.109,111.001z"/>
<path style="fill:#A8D3D6;" d="M421.582,88.042c-4.467,0-8.088-3.621-8.088-8.088V48.907c0-4.467,3.62-8.088,8.088-8.088
	c4.467,0,8.088,3.62,8.088,8.088v31.047C429.67,84.421,426.049,88.042,421.582,88.042z"/>
<path style="fill:#FFD347;" d="M436.275,111.001h-29.382c-3.318,0-6.007-2.689-6.007-6.007V85.961c0-3.318,2.689-6.007,6.007-6.007
	h29.382c3.318,0,6.007,2.689,6.007,6.007v19.034C442.281,108.312,439.592,111.001,436.275,111.001z"/>
<g>
</g>
<g>
</g>
<g>
</g>
<g>
</g>
<g>
</g>
<g>
</g>
<g>
</g>
<g>
</g>
<g>
</g>
<g>
</g>
<g>
</g>
<g>
</g>
<g>
</g>
<g>
</g>
<g>
</g>
</svg>
